<svg xmlns="http://www.w3.org/2000/svg" viewBox="0 0 64 64">
  <defs>
    <linearGradient id="g" x1="0" y1="0" x2="1" y2="1">
      <stop offset="0%" stop-color="#10a37f"/>
      <stop offset="100%" stop-color="#0d8b6c"/>
    </linearGradient>
  </defs>
  <rect width="64" height="64" rx="12" fill="url(#g)"/>
  <g fill="#fff" opacity=".96">
    <path d="M18 26a2 2 0 0 1 2-2h10a2 2 0 1 1 0 4H22a2 2 0 0 1-2-2Zm0 10a2 2 0 0 1 2-2h24a2 2 0 1 1 0 4H20a2 2 0 0 1-2-2Zm8 10a2 2 0 0 1 0-4h18a2 2 0 1 1 0 4H26Z"/>
    <circle cx="44" cy="20" r="4"/>
  </g>
</svg>

